<svg width="280" height="120" xmlns="http://www.w3.org/2000/svg"><g fill-rule="nonzero" fill="none"><path d="M5.275 47.333C1.808 43.852.148 39.444.148 34.111c0-5.37 1.697-9.778 5.127-13.148 3.468-3.482 7.969-5.148 13.54-5.148 7.34 0 13.723 3.481 16.821 10.444L25.86 31.37c-1.623-2.703-3.873-4.11-6.714-4.11-4.02 0-6.825 2.888-6.825 6.851 0 4.037 2.804 7 6.751 7 2.952 0 5.571-1.63 6.64-4.111l9.85 5.852c-3.061 6-9.296 9.555-16.858 9.555-5.46.037-9.96-1.666-13.429-5.074zm51.869 5.37c-5.718 0-10.293-1.777-13.871-5.37-3.505-3.592-5.276-7.926-5.276-13.148 0-5.222 1.771-9.555 5.276-13.148 3.578-3.593 8.153-5.37 13.87-5.37 5.719 0 10.293 1.777 13.871 5.37 3.579 3.593 5.35 7.926 5.35 13.148 0 5.222-1.771 9.556-5.35 13.148-3.578 3.593-8.152 5.37-13.87 5.37zm6.898-18.592c0-3.852-2.951-6.852-6.898-6.852-3.837 0-6.825 3.037-6.825 6.852 0 4.037 3.025 7 6.825 7 3.984 0 6.898-2.963 6.898-7zm17.191 17.556v-35H93.26v4.852c1.586-3.075 5.718-5.778 10.92-5.778 3.688 0 6.824 1.259 9.406 3.778 2.62 2.444 3.948 6.037 3.948 10.63v21.555h-12.359V33.37c0-4.037-1.992-6.37-5.46-6.37-3.689 0-6.197 2.704-6.197 6.74v17.964H81.233v-.037zm77.544-13.593h-24.163c1.328 2.963 3.837 4.407 7.6 4.407 3.689 0 7.009-1 10.107-3.037l4.76 8.186c-4.501 3.222-9.666 4.777-15.495 4.777-6.197 0-10.993-1.777-14.35-5.222-3.394-3.518-5.091-7.889-5.091-13.037 0-5.296 1.77-9.704 5.202-13.148 3.504-3.481 8.079-5.222 13.686-5.222 5.202 0 9.518 1.592 12.985 4.74 3.468 3.075 5.128 7.37 5.128 12.704 0 1.445-.11 3.074-.369 4.852zm-24.347-8.26h12.985c-1.07-2.888-3.21-4.333-6.382-4.333-3.283 0-5.46 1.445-6.603 4.334zm62.75 21.853h-14.24l-4.5-9.556-5.128 9.556h-13.87l10.66-17.519-9.333-17.481h13.982l3.763 8.889 4.648-8.89h13.539l-9.924 17.52 10.404 17.48zm26.71-35h11.62v35h-11.62v-2.445c-2.841 2.222-6.088 3.334-9.777 3.334-4.943 0-9.038-1.778-12.247-5.297-3.21-3.592-4.76-8-4.76-13.222 0-5.222 1.624-9.556 4.833-13.037 3.21-3.481 7.268-5.222 12.174-5.222 3.837 0 7.083 1.148 9.776 3.481v-2.592zm-13.872-3.482l-7.71-3.889c3.21-6.037 6.087-8.703 10.92-8.703 1.512 0 3.062.444 4.759 1.333 1.697.889 2.84 1.333 3.394 1.333 1.254 0 2.213-.74 3.763-3.222l7.784 3.704c-2.62 5.852-5.977 8.74-9.924 8.74-1.328 0-2.951-.444-4.759-1.37-1.808-.926-3.062-1.37-3.873-1.37-1.587 0-3.025 1.11-4.354 3.444zm11.547 26.037c1.365-1.444 2.066-3.148 2.066-5.11 0-1.964-.7-3.593-2.066-4.964-1.365-1.37-3.062-2.074-5.09-2.074a7.036 7.036 0 00-7.084 7.037c0 1.963.701 3.667 2.066 5.111 1.365 1.37 3.062 2.074 5.017 2.074 2.03 0 3.726-.703 5.091-2.074zm38.219 13.482c-5.718 0-10.293-1.778-13.871-5.37-3.505-3.593-5.275-7.927-5.275-13.149 0-5.222 1.77-9.555 5.275-13.148 3.578-3.593 8.153-5.37 13.87-5.37 5.719 0 10.293 1.777 13.872 5.37 3.578 3.593 5.349 7.926 5.349 13.148 0 5.222-1.77 9.556-5.35 13.148-3.578 3.593-8.189 5.37-13.87 5.37zm6.898-18.593c0-3.852-2.95-6.852-6.898-6.852-3.837 0-6.825 3.037-6.825 6.852 0 4.037 3.025 7 6.825 7 3.947 0 6.898-2.963 6.898-7z" fill="#0065AE"/><path d="M39.694 74.815c3.21 3.518 4.76 7.889 4.76 13.037 0 5.148-1.587 9.518-4.76 13.111-3.21 3.593-7.23 5.37-12.1 5.37-3.652 0-6.788-1.074-9.333-3.259v16.815H5.866V70.407H18.04V73c2.693-2.333 5.828-3.481 9.48-3.481 4.944 0 8.965 1.777 12.174 5.296zM31.91 88c0-3.963-2.877-7-6.898-7-3.947 0-6.899 3.037-6.899 7s2.952 7 6.899 7c4.02-.037 6.898-3.037 6.898-7zm36.707 18.444c-5.718 0-10.293-1.777-13.871-5.37-3.505-3.593-5.276-7.926-5.276-13.148 0-5.222 1.771-9.556 5.276-13.148 3.578-3.593 8.153-5.37 13.87-5.37 5.719 0 10.293 1.777 13.871 5.37 3.579 3.592 5.35 7.926 5.35 13.148 0 5.222-1.771 9.555-5.35 13.148-3.578 3.593-8.19 5.37-13.87 5.37zm6.898-18.592C75.515 84 72.564 81 68.617 81c-3.837 0-6.825 3.037-6.825 6.852 0 4.037 3.025 7 6.825 7 3.947 0 6.898-2.963 6.898-7zm15.974 12.926l5.128-8.519c3.947 2.704 7.6 4.111 10.845 4.111 2.066 0 3.136-.555 3.136-1.63 0-.518-.516-.962-1.586-1.333-.996-.37-7.268-2.222-8.67-2.888-4.574-1.963-6.824-5.223-6.824-9.778 0-3.408 1.365-6.185 4.132-8.26 2.766-2.074 6.382-3.148 10.993-3.148 4.943 0 9.48 1.445 13.502 4.334l-5.017 8.259c-3.062-1.815-5.976-2.778-8.596-2.778-1.807 0-2.767.519-2.767 1.445 0 .963 1.07 1.63 3.247 2.148 3.062.703 5.755 1.63 8.153 2.852 4.279 2.222 5.902 4.926 5.902 8.926 0 3.518-1.365 6.407-4.132 8.63-2.766 2.221-6.53 3.258-11.362 3.258-6.05.037-11.436-1.851-16.084-5.63zm44.6-46.815c3.948 0 6.9 3.037 6.9 6.852 0 3.963-2.952 6.852-6.9 6.852-3.947 0-6.898-2.89-6.898-6.852 0-3.815 3.099-6.852 6.899-6.852zm6.235 51.481h-12.358v-35h12.358v35zm35.82-1.963c-3.32 1.89-7.23 2.852-11.546 2.852-8.89 0-13.354-4.926-13.354-14.74V80.63h-5.128V70.444h5.275V58.037h12.248v12.407h10.55V80.63h-10.55v9.185c0 3.481 1.365 5.222 4.095 5.222 1.439 0 3.246-.518 5.349-1.444l3.062 9.888zm11.4-49.518c3.947 0 6.899 3.037 6.899 6.852 0 3.963-2.952 6.852-6.899 6.852s-6.898-2.89-6.898-6.852c0-3.815 3.062-6.852 6.898-6.852zm6.198 51.481h-12.359v-35h12.359v35zm30.877-35.037h13.502l-14.94 34.963h-10.035l-14.83-34.963h13.54l6.529 18.519 6.234-18.519zm41.576 0h11.62v35h-11.62v-2.444c-2.84 2.222-6.087 3.333-9.776 3.333-4.943 0-9.038-1.777-12.248-5.296-3.21-3.593-4.759-8-4.759-13.222 0-5.222 1.624-9.556 4.833-13.037 3.21-3.482 7.268-5.222 12.174-5.222 3.837 0 7.083 1.148 9.776 3.481v-2.593zm-2.324 22.556c1.365-1.444 2.066-3.148 2.066-5.111 0-1.963-.701-3.593-2.066-4.963-1.365-1.37-3.062-2.074-5.091-2.074a7.036 7.036 0 00-7.083 7.037c0 1.963.7 3.667 2.066 5.111 1.365 1.37 3.062 2.074 5.017 2.074 2.029 0 3.726-.704 5.09-2.074z" fill="#E87200"/></g></svg>